<svg xmlns="http://www.w3.org/2000/svg" viewBox="0 0 300 300"  width="300" height="300" stroke="#000" stroke-linecap="round" stroke-linejoin="round" fill="#fff" fill-rule="evenodd"><path d="M.5 149.5C.5 66.954 66.954.5 149.5.5s149 66.454 149 149-66.454 149-149 149-149-66.454-149-149z" stroke="#306" fill="#306"/><path d="M203.3002 44.5L87.6115 139.1547l6.2361 6.2361-13.0068 13.0093-1.749 1.7642-.0451 2.4752c-.0041.2008-.5207 20.2437-13.6571 33.3822l-4.3337 4.334 5.7809 5.7847L49.5 223.4879 75.5059 249.5l17.3413-17.3451 5.7811 5.7811 4.3337-4.3345c13.1357-13.1371 33.1747-13.6556 33.3594-13.6586l2.4928-.0328 14.7678-14.7704 6.2347 6.2334L254.5 95.711 203.3002 44.5zM75.5059 232.1549l-8.667-8.6673 8.6693-8.6756 8.6676 8.6714-8.6699 8.6715zm23.3845-11.2997l-20.7562-20.7608c6.3696-8.1112 9.6578-17.1968 11.3572-24.3718l33.7655 33.7717c-7.175 1.7015-16.2583 4.9897-24.3665 11.3609zm37.3512-15.7151l-42.394-42.4053 8.6691-8.6725 42.3954 42.4042-8.6705 8.6736zm22.6689-12.0172l-53.048-53.058 96.613-79.0439 35.5036 35.5101-79.0686 96.5918z" stroke="#fff" stroke-linejoin="miter" fill-rule="nonzero"/><path stroke="#fff" d="M102 144.5L194.5 52l52.5 52.5-92.5 92.5z"/></svg>